<svg width="16" height="18" viewBox="0 0 16 18" fill="none" xmlns="http://www.w3.org/2000/svg">
<path d="M11.7502 3.73832e-08C10.7078 3.73832e-08 9.68175 0.405 8.8905 1.1955L1.85925 8.22675C-0.36975 10.4557 -0.36975 14.0828 1.85925 16.3125C4.089 18.5422 7.71675 18.5422 9.94575 16.3125L14.6332 11.625L13.578 10.5705L8.8905 15.258C8.49867 15.6514 8.03302 15.9635 7.52026 16.1765C7.00751 16.3895 6.45774 16.4992 5.9025 16.4992C5.34726 16.4992 4.79749 16.3895 4.28474 16.1765C3.77198 15.9635 3.30633 15.6514 2.9145 15.258C2.52099 14.8662 2.20875 14.4005 1.99569 13.8876C1.78263 13.3748 1.67295 12.825 1.67295 12.2696C1.67295 11.7143 1.78263 11.1644 1.99569 10.6516C2.20875 10.1388 2.52099 9.67309 2.9145 9.28125L9.94575 2.25C10.1837 2.01056 10.4667 1.82054 10.7784 1.69087C11.09 1.56121 11.4243 1.49445 11.7619 1.49445C12.0995 1.49445 12.4337 1.56121 12.7454 1.69087C13.0571 1.82054 13.34 2.01056 13.578 2.25C13.8176 2.48798 14.0077 2.77099 14.1374 3.08275C14.2671 3.3945 14.3339 3.72883 14.3339 4.0665C14.3339 4.40417 14.2671 4.7385 14.1374 5.05025C14.0077 5.36201 13.8176 5.64502 13.578 5.883L6.54675 12.9142C6.18675 13.2743 5.61825 13.2743 5.25825 12.9142C5.17265 12.8301 5.10465 12.7298 5.05824 12.6191C5.01183 12.5085 4.98792 12.3896 4.98792 12.2696C4.98792 12.1496 5.01183 12.0308 5.05824 11.9201C5.10465 11.8094 5.17265 11.7091 5.25825 11.625L11.7037 5.1795L10.6478 4.125L4.203 10.5705C3.75403 11.022 3.50201 11.6329 3.50201 12.2696C3.50201 12.9064 3.75403 13.5172 4.203 13.9688C4.65449 14.4175 5.26519 14.6694 5.90175 14.6694C6.53831 14.6694 7.14901 14.4175 7.6005 13.9688L14.6325 6.9375C15.1997 6.36801 15.5855 5.64322 15.7411 4.85464C15.8967 4.06606 15.8152 3.24906 15.5068 2.50679C15.1984 1.76452 14.677 1.13026 14.0084 0.684102C13.3398 0.237944 12.554 -0.000108916 11.7502 3.73832e-08Z" fill="#B4B4B4"/>
</svg>
