<svg width="18" height="18" viewBox="0 0 18 18" fill="none" xmlns="http://www.w3.org/2000/svg">
<path fill-rule="evenodd" clip-rule="evenodd" d="M17.5648 2.06478C17.6717 1.95801 17.7565 1.83124 17.8144 1.6917C17.8723 1.55215 17.9021 1.40257 17.9022 1.25149C17.9023 1.10041 17.8727 0.950786 17.8149 0.81117C17.7572 0.671553 17.6725 0.544675 17.5658 0.437779C17.459 0.330883 17.3322 0.246063 17.1927 0.188161C17.0532 0.130259 16.9036 0.100409 16.7525 0.100317C16.6014 0.100224 16.4518 0.129889 16.3122 0.18762C16.1726 0.24535 16.0457 0.330014 15.9388 0.436779L9.00078 7.37478L2.06478 0.436779C1.84889 0.220893 1.55609 0.0996094 1.25078 0.0996094C0.94547 0.0996094 0.652665 0.220893 0.436779 0.436779C0.220893 0.652665 0.0996094 0.94547 0.0996094 1.25078C0.0996094 1.55609 0.220893 1.84889 0.436779 2.06478L7.37478 9.00078L0.436779 15.9368C0.329883 16.0437 0.245088 16.1706 0.187237 16.3102C0.129385 16.4499 0.0996094 16.5996 0.0996094 16.7508C0.0996094 16.902 0.129385 17.0516 0.187237 17.1913C0.245088 17.331 0.329883 17.4579 0.436779 17.5648C0.652665 17.7807 0.94547 17.902 1.25078 17.902C1.40195 17.902 1.55165 17.8722 1.69131 17.8143C1.83098 17.7565 1.95788 17.6717 2.06478 17.5648L9.00078 10.6268L15.9388 17.5648C16.1547 17.7804 16.4474 17.9014 16.7525 17.9012C17.0576 17.9011 17.3502 17.7797 17.5658 17.5638C17.7814 17.3479 17.9024 17.0552 17.9022 16.7501C17.9021 16.445 17.7807 16.1524 17.5648 15.9368L10.6268 9.00078L17.5648 2.06478Z" fill="#2398AB"/>
</svg>
