<svg width="27" height="17" viewBox="0 0 27 17" fill="none" xmlns="http://www.w3.org/2000/svg">
<path d="M26.0835 8.15828C26.0466 8.07496 25.1532 6.0932 23.1673 4.10723C20.521 1.46102 17.1787 0.0625 13.5 0.0625C9.82124 0.0625 6.47894 1.46102 3.83272 4.10723C1.84675 6.0932 0.949209 8.07812 0.916513 8.15828C0.868539 8.26619 0.84375 8.38296 0.84375 8.50105C0.84375 8.61914 0.868539 8.73592 0.916513 8.84383C0.953427 8.92715 1.84675 10.9079 3.83272 12.8938C6.47894 15.539 9.82124 16.9375 13.5 16.9375C17.1787 16.9375 20.521 15.539 23.1673 12.8938C25.1532 10.9079 26.0466 8.92715 26.0835 8.84383C26.1314 8.73592 26.1562 8.61914 26.1562 8.50105C26.1562 8.38296 26.1314 8.26619 26.0835 8.15828ZM13.5 15.25C10.2537 15.25 7.41761 14.0698 5.06987 11.7432C4.10657 10.7852 3.28702 9.6928 2.63671 8.5C3.28684 7.30708 4.10641 6.21468 5.06987 5.25684C7.41761 2.9302 10.2537 1.75 13.5 1.75C16.7463 1.75 19.5824 2.9302 21.9301 5.25684C22.8953 6.21445 23.7166 7.30685 24.3685 8.5C23.6081 9.91961 20.2953 15.25 13.5 15.25ZM13.5 3.4375C12.4987 3.4375 11.5199 3.73441 10.6874 4.29069C9.85489 4.84696 9.20602 5.63761 8.82285 6.56266C8.43968 7.48772 8.33943 8.50562 8.53476 9.48764C8.7301 10.4697 9.21226 11.3717 9.92026 12.0797C10.6283 12.7877 11.5303 13.2699 12.5123 13.4652C13.4944 13.6606 14.5123 13.5603 15.4373 13.1771C16.3624 12.794 17.153 12.1451 17.7093 11.3126C18.2656 10.4801 18.5625 9.50127 18.5625 8.5C18.5611 7.15777 18.0273 5.87091 17.0782 4.92181C16.1291 3.97271 14.8422 3.4389 13.5 3.4375ZM13.5 11.875C12.8325 11.875 12.18 11.6771 11.6249 11.3062C11.0699 10.9354 10.6373 10.4083 10.3819 9.79156C10.1265 9.17486 10.0596 8.49626 10.1898 7.84157C10.3201 7.18688 10.6415 6.58552 11.1135 6.11351C11.5855 5.64151 12.1869 5.32007 12.8416 5.18985C13.4962 5.05962 14.1748 5.12646 14.7915 5.38191C15.4082 5.63735 15.9354 6.06993 16.3062 6.62495C16.677 7.17997 16.875 7.83249 16.875 8.5C16.875 9.39511 16.5194 10.2535 15.8865 10.8865C15.2535 11.5194 14.3951 11.875 13.5 11.875Z" fill="#2398AB"/>
</svg>
