<svg width="66" height="66" viewBox="0 0 66 66" fill="none" xmlns="http://www.w3.org/2000/svg">
<g filter="url(#filter0_d_54_4316)">
<rect x="17" y="17" width="32" height="32" rx="16" fill="white"/>
<path d="M32.5738 28.1309C31.6951 28.1309 30.8361 28.3914 30.1054 28.8796C29.3748 29.3678 28.8053 30.0617 28.4691 30.8736C28.1328 31.6854 28.0448 32.5787 28.2162 33.4406C28.3877 34.3024 28.8108 35.0941 29.4322 35.7155C30.0535 36.3368 30.8452 36.76 31.707 36.9314C32.5689 37.1028 33.4622 37.0148 34.2741 36.6786C35.0859 36.3423 35.7798 35.7728 36.268 35.0422C36.7562 34.3115 37.0168 33.4525 37.0168 32.5738C37.0168 31.3955 36.5487 30.2654 35.7155 29.4322C34.8822 28.599 33.7522 28.1309 32.5738 28.1309ZM32.5738 35.4585C32.0033 35.4585 31.4456 35.2893 30.9712 34.9723C30.4968 34.6554 30.1271 34.2048 29.9087 33.6777C29.6904 33.1506 29.6333 32.5706 29.7446 32.011C29.8559 31.4515 30.1306 30.9375 30.534 30.534C30.9375 30.1306 31.4515 29.8559 32.011 29.7446C32.5706 29.6333 33.1506 29.6904 33.6777 29.9087C34.2048 30.1271 34.6554 30.4968 34.9723 30.9712C35.2893 31.4456 35.4585 32.0033 35.4585 32.5738C35.4586 32.9527 35.3841 33.3278 35.2391 33.6779C35.0942 34.0279 34.8817 34.346 34.6138 34.6138C34.346 34.8817 34.0279 35.0942 33.6779 35.2391C33.3278 35.3841 32.9527 35.4586 32.5738 35.4585Z" fill="#2398AB"/>
<path d="M41.1756 29.0068C41.1613 28.2891 41.0253 27.5791 40.7733 26.9069C40.5559 26.3296 40.2155 25.8064 39.7757 25.3737C39.3439 24.9337 38.8213 24.5932 38.2442 24.3761C37.5718 24.1242 36.8614 23.9885 36.1435 23.9747C35.2211 23.9323 34.9261 23.9219 32.5761 23.9219C30.2262 23.9219 29.9311 23.9314 29.0088 23.9738C28.2908 23.988 27.5805 24.1241 26.908 24.3761C26.3311 24.5935 25.8085 24.9339 25.3765 25.3737C24.9355 25.8057 24.5944 26.329 24.3772 26.9069C24.1256 27.5791 23.9898 28.2892 23.9757 29.0068C23.9325 29.9292 23.9238 30.2242 23.9238 32.5742C23.9238 34.9241 23.9325 35.2192 23.9757 36.1415C23.9898 36.8592 24.1256 37.5692 24.3772 38.2414C24.5942 38.8192 24.935 39.3425 25.3757 39.7746C25.8081 40.2143 26.331 40.5547 26.908 40.7722C27.5805 41.0239 28.2909 41.1596 29.0088 41.1737C29.9311 41.2161 30.2262 41.2265 32.5753 41.2265C34.9244 41.2265 35.2203 41.217 36.1426 41.1746C36.8603 41.1602 37.5703 41.0242 38.2425 40.7722C38.8174 40.55 39.3395 40.21 39.7753 39.7742C40.2111 39.3384 40.551 38.8163 40.7733 38.2414C41.0255 37.5693 41.1616 36.8592 41.1756 36.1415C41.2172 35.2183 41.2276 34.9241 41.2276 32.5742C41.2276 30.2242 41.2172 29.9292 41.1756 29.0068ZM39.6182 36.0706C39.6118 36.6192 39.5115 37.1626 39.3215 37.6773C39.1775 38.0505 38.9571 38.3894 38.6742 38.6723C38.3914 38.9551 38.0525 39.1756 37.6793 39.3195C37.1647 39.5103 36.6212 39.6109 36.0725 39.6171C35.1597 39.6587 34.8863 39.6673 32.5753 39.6673C30.2642 39.6673 29.9917 39.6587 29.0797 39.6171C28.531 39.6109 27.9875 39.5102 27.473 39.3195C27.0973 39.1806 26.7573 38.9595 26.478 38.6723C26.1903 38.3934 25.9691 38.0533 25.8308 37.6773C25.64 37.1628 25.5393 36.6193 25.5332 36.0706C25.4916 35.1586 25.483 34.8852 25.483 32.575C25.483 30.2649 25.4916 29.9906 25.5332 29.0778C25.5401 28.5292 25.6407 27.9857 25.8308 27.471C25.9697 27.0953 26.1908 26.7553 26.478 26.476C26.7568 26.1883 27.0969 25.9671 27.473 25.8288C27.9875 25.6381 28.531 25.5374 29.0797 25.5312C29.9917 25.4879 30.266 25.4793 32.5753 25.4793C34.8846 25.4793 35.1597 25.4888 36.0725 25.5303C36.6211 25.5373 37.1646 25.6379 37.6793 25.828C38.0525 25.9718 38.3914 26.1923 38.6743 26.4751C38.9571 26.758 39.1776 27.0969 39.3215 27.4702C39.5122 27.9847 39.6129 28.5282 39.6191 29.0769C39.6606 29.9897 39.6693 30.2623 39.6693 32.5733C39.6693 34.8843 39.6606 35.1569 39.6191 36.0697L39.6182 36.0706Z" fill="#2398AB"/>
</g>
<defs>
<filter id="filter0_d_54_4316" x="0.748724" y="0.748724" width="64.5026" height="64.5026" filterUnits="userSpaceOnUse" color-interpolation-filters="sRGB">
<feFlood flood-opacity="0" result="BackgroundImageFix"/>
<feColorMatrix in="SourceAlpha" type="matrix" values="0 0 0 0 0 0 0 0 0 0 0 0 0 0 0 0 0 0 127 0" result="hardAlpha"/>
<feMorphology radius="2.70855" operator="dilate" in="SourceAlpha" result="effect1_dropShadow_54_4316"/>
<feOffset/>
<feGaussianBlur stdDeviation="6.77137"/>
<feComposite in2="hardAlpha" operator="out"/>
<feColorMatrix type="matrix" values="0 0 0 0 0 0 0 0 0 0 0 0 0 0 0 0 0 0 0.04 0"/>
<feBlend mode="normal" in2="BackgroundImageFix" result="effect1_dropShadow_54_4316"/>
<feBlend mode="normal" in="SourceGraphic" in2="effect1_dropShadow_54_4316" result="shape"/>
</filter>
</defs>
</svg>
