<svg width="40" height="40" viewBox="0 0 40 40" fill="none" xmlns="http://www.w3.org/2000/svg">
<rect width="40" height="40" rx="20" fill="#2398AB"/>
<path d="M19.9985 14.293C18.8701 14.293 17.767 14.6276 16.8287 15.2545C15.8904 15.8815 15.1591 16.7725 14.7273 17.8151C14.2954 18.8577 14.1825 20.0049 14.4026 21.1116C14.6228 22.2184 15.1662 23.235 15.9641 24.033C16.762 24.8309 17.7787 25.3743 18.8854 25.5944C19.9922 25.8146 21.1394 25.7016 22.1819 25.2698C23.2245 24.8379 24.1156 24.1066 24.7425 23.1684C25.3695 22.2301 25.7041 21.127 25.7041 19.9985C25.7041 18.4853 25.103 17.0341 24.033 15.9641C22.963 14.8941 21.5117 14.293 19.9985 14.293ZM19.9985 23.703C19.2659 23.703 18.5496 23.4857 17.9404 23.0787C17.3313 22.6716 16.8564 22.0931 16.5761 21.4162C16.2957 20.7393 16.2223 19.9944 16.3653 19.2758C16.5082 18.5572 16.861 17.8972 17.3791 17.3791C17.8972 16.861 18.5572 16.5082 19.2758 16.3653C19.9944 16.2223 20.7393 16.2957 21.4162 16.5761C22.0931 16.8564 22.6716 17.3313 23.0787 17.9404C23.4857 18.5496 23.703 19.2659 23.703 19.9985C23.7031 20.485 23.6074 20.9668 23.4213 21.4163C23.2352 21.8658 22.9623 22.2743 22.6183 22.6183C22.2743 22.9623 21.8658 23.2352 21.4163 23.4213C20.9668 23.6074 20.485 23.7031 19.9985 23.703Z" fill="white"/>
<path d="M31.0431 15.4187C31.0247 14.497 30.85 13.5852 30.5264 12.722C30.2472 11.9806 29.8101 11.3088 29.2453 10.7531C28.6909 10.188 28.0197 9.75078 27.2787 9.47201C26.4151 9.14852 25.5029 8.97419 24.5809 8.95645C23.3965 8.90201 23.0176 8.88867 19.9998 8.88867C16.982 8.88867 16.6031 8.90089 15.4187 8.95534C14.4967 8.97365 13.5844 9.14835 12.7209 9.47201C11.9801 9.75114 11.309 10.1883 10.7542 10.7531C10.1878 11.3078 9.74978 11.9799 9.47089 12.722C9.14774 13.5853 8.97342 14.4971 8.95534 15.4187C8.89978 16.6031 8.88867 16.982 8.88867 19.9998C8.88867 23.0176 8.89978 23.3964 8.95534 24.5809C8.97344 25.5025 9.14776 26.4143 9.47089 27.2776C9.74952 28.0196 10.1872 28.6916 10.7531 29.2464C11.3084 29.8111 11.9799 30.2482 12.7209 30.5276C13.5845 30.8507 14.4967 31.0251 15.4187 31.0431C16.6031 31.0976 16.982 31.1109 19.9987 31.1109C23.0153 31.1109 23.3953 31.0987 24.5798 31.0442C25.5014 31.0258 26.4133 30.8511 27.2764 30.5276C28.0147 30.2421 28.6851 29.8056 29.2448 29.2459C29.8045 28.6862 30.241 28.0158 30.5264 27.2776C30.8503 26.4145 31.025 25.5026 31.0431 24.5809C31.0964 23.3953 31.1098 23.0176 31.1098 19.9998C31.1098 16.982 31.0964 16.6031 31.0431 15.4187ZM29.0431 24.4898C29.0349 25.1943 28.906 25.8922 28.662 26.5531C28.4772 27.0324 28.1941 27.4676 27.8308 27.8308C27.4676 28.1941 27.0324 28.4772 26.5531 28.662C25.8924 28.907 25.1944 29.0363 24.4898 29.0442C23.3176 29.0976 22.9664 29.1087 19.9987 29.1087C17.0309 29.1087 16.6809 29.0976 15.5098 29.0442C14.8052 29.0362 14.1072 28.9069 13.4464 28.662C12.9639 28.4836 12.5274 28.1996 12.1687 27.8309C11.7992 27.4727 11.5152 27.036 11.3376 26.5531C11.0926 25.8924 10.9633 25.1944 10.9553 24.4898C10.902 23.3187 10.8909 22.9676 10.8909 20.0009C10.8909 17.0342 10.902 16.682 10.9553 15.5098C10.9642 14.8052 11.0935 14.1074 11.3376 13.4464C11.5159 12.9639 11.7999 12.5274 12.1687 12.1687C12.5267 11.7992 12.9635 11.5151 13.4464 11.3376C14.1072 11.0926 14.8052 10.9633 15.5098 10.9553C16.6809 10.8998 17.0331 10.8887 19.9987 10.8887C22.9642 10.8887 23.3176 10.9009 24.4898 10.9542C25.1943 10.9631 25.8921 11.0924 26.5531 11.3364C27.0324 11.5212 27.4677 11.8043 27.8309 12.1675C28.1941 12.5308 28.4773 12.966 28.662 13.4453C28.9069 14.1061 29.0362 14.804 29.0442 15.5087C29.0976 16.6809 29.1087 17.0309 29.1087 19.9987C29.1087 22.9664 29.0976 23.3165 29.0442 24.4887L29.0431 24.4898Z" fill="white"/>
</svg>
