<svg width="30" height="30" viewBox="0 0 30 30" fill="none" xmlns="http://www.w3.org/2000/svg">
<rect width="30" height="30" rx="15" fill="#E65B60"/>
<path d="M15.0007 17.5007L17.5007 15.0007M17.5007 15.0007L15.0007 12.5007M17.5007 15.0007H8.33398M8.33398 11.0407V11.0007C8.33398 10.0673 8.33398 9.60065 8.51565 9.24398C8.67565 8.92982 8.92982 8.67565 9.24398 8.51565C9.60065 8.33398 10.0673 8.33398 11.0007 8.33398H19.0007C19.934 8.33398 20.4007 8.33398 20.7565 8.51565C21.0707 8.67565 21.3257 8.92982 21.4857 9.24398C21.6673 9.59982 21.6673 10.0665 21.6673 10.9982V19.004C21.6673 19.9357 21.6673 20.4015 21.4857 20.7573C21.3256 21.071 21.0703 21.3259 20.7565 21.4857C20.4007 21.6673 19.9348 21.6673 19.0032 21.6673H10.9982C10.0665 21.6673 9.59982 21.6673 9.24398 21.4857C8.93039 21.3259 8.67544 21.0709 8.51565 20.7573C8.33398 20.4007 8.33398 19.934 8.33398 19.0007V18.959" stroke="#F8F8F8" stroke-width="1.66667" stroke-linecap="round" stroke-linejoin="round"/>
</svg>
