<svg width="18" height="14" viewBox="0 0 18 14" fill="none" xmlns="http://www.w3.org/2000/svg">
<path d="M1.5 2.83268C1.5 2.39065 1.67559 1.96673 1.98816 1.65417C2.30072 1.34161 2.72464 1.16602 3.16667 1.16602H14.8333C15.2754 1.16602 15.6993 1.34161 16.0118 1.65417C16.3244 1.96673 16.5 2.39065 16.5 2.83268V11.166C16.5 11.608 16.3244 12.032 16.0118 12.3445C15.6993 12.6571 15.2754 12.8327 14.8333 12.8327H3.16667C2.72464 12.8327 2.30072 12.6571 1.98816 12.3445C1.67559 12.032 1.5 11.608 1.5 11.166V2.83268Z" stroke="#F8F8F8" stroke-width="1.66667" stroke-linecap="round" stroke-linejoin="round"/>
<path d="M1.5 2.83203L9 7.83203L16.5 2.83203" stroke="#F8F8F8" stroke-width="1.66667" stroke-linecap="round" stroke-linejoin="round"/>
</svg>
