<svg width="30" height="30" viewBox="0 0 30 30" fill="none" xmlns="http://www.w3.org/2000/svg">
<rect width="30" height="30" rx="15" fill="#2398AB"/>
<path d="M25 14.5987C25.0033 16.5048 24.4128 18.3683 23.3044 19.9497C22.3904 21.2586 21.1545 22.331 19.7061 23.0723C18.2577 23.8136 16.6413 24.2008 15 24.1997C13.3586 24.2008 11.7423 23.8136 10.2939 23.0723C8.84548 22.331 7.6096 21.2586 6.69556 19.9497C5.82526 18.7041 5.271 17.2801 5.07723 15.7919C4.88346 14.3036 5.05555 12.7924 5.57972 11.3795C6.10389 9.96661 6.96555 8.69126 8.09563 7.6557C9.22571 6.62014 10.5928 5.85319 12.0872 5.41631C13.5817 4.97944 15.162 4.8848 16.7014 5.13998C18.2408 5.39516 19.6965 5.99307 20.9519 6.88577C22.2072 7.77847 23.2273 8.94113 23.9303 10.2805C24.6333 11.62 24.9996 13.0989 25 14.5987Z" stroke="white" stroke-width="1.60417"/>
<mask id="path-3-inside-1_54_7258" fill="white">
<path d="M16.3877 11.3985C16.3877 12.1345 15.7654 12.7319 14.9988 12.7319V14.3321C15.8092 14.3321 16.5864 14.023 17.1594 13.4729C17.7324 12.9227 18.0543 12.1765 18.0543 11.3985H16.3877ZM14.9988 12.7319C14.2321 12.7319 13.6099 12.1345 13.6099 11.3985H11.9432C11.9432 12.1765 12.2651 12.9227 12.8382 13.4729C13.4112 14.023 14.1884 14.3321 14.9988 14.3321V12.7319ZM13.6099 11.3985C13.6099 10.6624 14.2321 10.065 14.9988 10.065V8.46484C14.1884 8.46484 13.4112 8.77392 12.8382 9.32408C12.2651 9.87425 11.9432 10.6204 11.9432 11.3985H13.6099ZM14.9988 10.065C15.7654 10.065 16.3877 10.6624 16.3877 11.3985H18.0543C18.0543 10.6204 17.7324 9.87425 17.1594 9.32408C16.5864 8.77392 15.8092 8.46484 14.9988 8.46484V10.065ZM7.40545 20.8458L6.60656 20.6175L6.47656 21.0357L6.77323 21.3664L7.40545 20.8458ZM22.5921 20.8458L23.2254 21.3675L23.521 21.0368L23.391 20.6175L22.5921 20.8458ZM11.6654 18.5992H18.3321V16.999H11.6654V18.5992ZM11.6654 16.999C10.5289 16.9991 9.42269 17.3512 8.51126 18.0032C7.59984 18.6551 6.93184 19.572 6.60656 20.6175L8.20434 21.0741C8.42715 20.359 8.88426 19.7319 9.50779 19.2861C10.1313 18.8402 10.888 18.5993 11.6654 18.5992V16.999ZM14.9988 23.3997C13.6759 23.4011 12.3685 23.127 11.1667 22.5962C9.96484 22.0654 8.8973 21.2906 8.03767 20.3252L6.77323 21.3664C7.7893 22.5068 9.05083 23.4231 10.4709 24.0502C11.8909 24.6773 13.4357 25.0013 14.9988 24.9998V23.3997ZM18.3321 18.5992C19.9654 18.5992 21.3488 19.6425 21.7932 21.0741L23.391 20.6175C23.0657 19.572 22.3977 18.6551 21.4863 18.0032C20.5749 17.3512 19.4687 16.9991 18.3321 16.999V18.5992ZM21.9599 20.3252C21.1003 21.2906 20.0327 22.0654 18.8309 22.5962C17.6291 23.127 16.3216 23.4011 14.9988 23.3997V24.9998C16.5618 25.0013 18.1066 24.6773 19.5267 24.0502C20.9467 23.4231 22.2094 22.5078 23.2254 21.3675L21.9599 20.3252Z"/>
</mask>
<path d="M16.3877 11.3985C16.3877 12.1345 15.7654 12.7319 14.9988 12.7319V14.3321C15.8092 14.3321 16.5864 14.023 17.1594 13.4729C17.7324 12.9227 18.0543 12.1765 18.0543 11.3985H16.3877ZM14.9988 12.7319C14.2321 12.7319 13.6099 12.1345 13.6099 11.3985H11.9432C11.9432 12.1765 12.2651 12.9227 12.8382 13.4729C13.4112 14.023 14.1884 14.3321 14.9988 14.3321V12.7319ZM13.6099 11.3985C13.6099 10.6624 14.2321 10.065 14.9988 10.065V8.46484C14.1884 8.46484 13.4112 8.77392 12.8382 9.32408C12.2651 9.87425 11.9432 10.6204 11.9432 11.3985H13.6099ZM14.9988 10.065C15.7654 10.065 16.3877 10.6624 16.3877 11.3985H18.0543C18.0543 10.6204 17.7324 9.87425 17.1594 9.32408C16.5864 8.77392 15.8092 8.46484 14.9988 8.46484V10.065ZM7.40545 20.8458L6.60656 20.6175L6.47656 21.0357L6.77323 21.3664L7.40545 20.8458ZM22.5921 20.8458L23.2254 21.3675L23.521 21.0368L23.391 20.6175L22.5921 20.8458ZM11.6654 18.5992H18.3321V16.999H11.6654V18.5992ZM11.6654 16.999C10.5289 16.9991 9.42269 17.3512 8.51126 18.0032C7.59984 18.6551 6.93184 19.572 6.60656 20.6175L8.20434 21.0741C8.42715 20.359 8.88426 19.7319 9.50779 19.2861C10.1313 18.8402 10.888 18.5993 11.6654 18.5992V16.999ZM14.9988 23.3997C13.6759 23.4011 12.3685 23.127 11.1667 22.5962C9.96484 22.0654 8.8973 21.2906 8.03767 20.3252L6.77323 21.3664C7.7893 22.5068 9.05083 23.4231 10.4709 24.0502C11.8909 24.6773 13.4357 25.0013 14.9988 24.9998V23.3997ZM18.3321 18.5992C19.9654 18.5992 21.3488 19.6425 21.7932 21.0741L23.391 20.6175C23.0657 19.572 22.3977 18.6551 21.4863 18.0032C20.5749 17.3512 19.4687 16.9991 18.3321 16.999V18.5992ZM21.9599 20.3252C21.1003 21.2906 20.0327 22.0654 18.8309 22.5962C17.6291 23.127 16.3216 23.4011 14.9988 23.3997V24.9998C16.5618 25.0013 18.1066 24.6773 19.5267 24.0502C20.9467 23.4231 22.2094 22.5078 23.2254 21.3675L21.9599 20.3252Z" fill="#2398AB"/>
<path d="M14.4641 12.7319V14.3321H15.5335V12.7319H14.4641ZM18.0543 10.8638H16.3877V11.9332H18.0543V10.8638ZM13.6099 10.8638H11.9432V11.9332H13.6099V10.8638ZM15.5335 10.065V8.46484H14.4641V10.065H15.5335ZM18.8668 18.5992V16.999H17.7974V18.5992H18.8668ZM11.1307 16.999V18.5992H12.2002V16.999H11.1307ZM15.5335 24.9998V23.3997H14.4641V24.9998H15.5335ZM18.0543 11.3985H19.1238H18.0543ZM11.9432 11.3985H10.8738H11.9432ZM7.40545 20.8458L8.08525 21.6714L9.65719 20.377L7.69929 19.8175L7.40545 20.8458ZM6.60656 20.6175L5.58539 20.2998L5.58533 20.3001L6.60656 20.6175ZM6.47656 21.0357L5.45533 20.7182L5.27511 21.298L5.6805 21.7498L6.47656 21.0357ZM22.5921 20.8458L22.2983 19.8175L20.3407 20.3769L21.9122 21.6713L22.5921 20.8458ZM23.521 21.0368L24.3184 21.7494L24.7217 21.2981L24.5425 20.72L23.521 21.0368ZM23.391 20.6175L24.4125 20.3008L24.4122 20.2998L23.391 20.6175ZM11.6654 18.5992V17.5298H11.6653L11.6654 18.5992ZM18.3321 16.999L18.3322 15.9296H18.3321V16.999ZM11.6654 16.999V15.9296H11.6654L11.6654 16.999ZM8.20434 21.0741L7.9105 22.1024L8.9147 22.3894L9.22537 21.3922L8.20434 21.0741ZM14.9988 23.3997L15 22.3302L14.9976 22.3302L14.9988 23.3997ZM8.03767 20.3252L8.83636 19.614L8.15214 18.8456L7.35787 19.4997L8.03767 20.3252ZM14.9988 24.9998L14.9998 23.9304L14.9978 23.9304L14.9988 24.9998ZM21.7932 21.0741L20.7719 21.3912L21.0818 22.3896L22.0871 22.1024L21.7932 21.0741ZM21.9599 20.3252L22.6397 19.4997L21.8455 18.8456L21.1612 19.614L21.9599 20.3252ZM15.3182 11.3985C15.3182 11.5033 15.2163 11.6625 14.9988 11.6625V13.8014C16.3146 13.8014 17.4571 12.7658 17.4571 11.3985H15.3182ZM14.9988 15.4015C16.0791 15.4015 17.1234 14.9899 17.9 14.2443L16.4187 12.7014C16.0493 13.0561 15.5393 13.2627 14.9988 13.2627V15.4015ZM17.9 14.2443C18.6781 13.4973 19.1238 12.4745 19.1238 11.3985L16.9849 11.3985C16.9849 11.8785 16.7867 12.3481 16.4187 12.7014L17.9 14.2443ZM14.9988 11.6625C14.7813 11.6625 14.6793 11.5033 14.6793 11.3985H12.5404C12.5404 12.7658 13.6829 13.8014 14.9988 13.8014V11.6625ZM10.8738 11.3985C10.8738 12.4745 11.3194 13.4973 12.0975 14.2443L13.5788 12.7014C13.2109 12.3481 13.0127 11.8785 13.0127 11.3985H10.8738ZM12.0975 14.2443C12.8741 14.9899 13.9185 15.4015 14.9988 15.4015V13.2627C14.4583 13.2627 13.9483 13.0561 13.5788 12.7014L12.0975 14.2443ZM14.6793 11.3985C14.6793 11.2937 14.7813 11.1344 14.9988 11.1344V8.99556C13.6829 8.99556 12.5404 10.0311 12.5404 11.3985H14.6793ZM14.9988 7.3954C13.9185 7.3954 12.8741 7.80701 12.0975 8.55264L13.5788 10.0955C13.9483 9.74083 14.4583 9.53429 14.9988 9.53429V7.3954ZM12.0975 8.55264C11.3194 9.29969 10.8738 10.3224 10.8738 11.3985L13.0127 11.3985C13.0127 10.9184 13.2109 10.4488 13.5788 10.0955L12.0975 8.55264ZM14.9988 11.1344C15.2163 11.1344 15.3182 11.2937 15.3182 11.3985H17.4571C17.4571 10.0311 16.3146 8.99556 14.9988 8.99556V11.1344ZM19.1238 11.3985C19.1238 10.3224 18.6781 9.29969 17.9 8.55264L16.4187 10.0955C16.7867 10.4488 16.9849 10.9184 16.9849 11.3985H19.1238ZM17.9 8.55264C17.1234 7.80701 16.0791 7.3954 14.9988 7.3954V9.53429C15.5393 9.53429 16.0493 9.74083 16.4187 10.0955L17.9 8.55264ZM7.69929 19.8175L6.9004 19.5892L6.31272 21.6458L7.11161 21.8741L7.69929 19.8175ZM5.58533 20.3001L5.45533 20.7182L7.4978 21.3532L7.6278 20.935L5.58533 20.3001ZM5.6805 21.7498L5.97717 22.0805L7.56929 20.6523L7.27263 20.3216L5.6805 21.7498ZM7.45303 22.192L8.08525 21.6714L6.72565 20.0202L6.09343 20.5408L7.45303 22.192ZM21.9122 21.6713L22.5455 22.193L23.9054 20.542L23.272 20.0203L21.9122 21.6713ZM24.0228 22.0801L24.3184 21.7494L22.7236 20.3241L22.428 20.6548L24.0228 22.0801ZM24.5425 20.72L24.4125 20.3008L22.3695 20.9343L22.4995 21.3535L24.5425 20.72ZM23.0971 19.5892L22.2983 19.8175L22.8859 21.8741L23.6848 21.6458L23.0971 19.5892ZM11.6654 19.6686H18.3321V17.5298H11.6654V19.6686ZM18.3321 15.9296H11.6654V18.0685H18.3321V15.9296ZM11.6654 15.9296C10.3091 15.9297 8.98475 16.3496 7.88909 17.1333L9.13343 18.873C9.86063 18.3529 10.7486 18.0685 11.6655 18.0685L11.6654 15.9296ZM7.88909 17.1333C6.79281 17.9175 5.98165 19.0261 5.58539 20.2998L7.62773 20.9352C7.88203 20.1178 8.40686 19.3927 9.13343 18.873L7.88909 17.1333ZM6.31272 21.6458L7.9105 22.1024L8.49818 20.0458L6.9004 19.5892L6.31272 21.6458ZM9.22537 21.3922C9.37714 20.9051 9.6911 20.4697 10.1298 20.156L8.88574 18.4162C8.07743 18.9941 7.47717 19.8128 7.18331 20.756L9.22537 21.3922ZM10.1298 20.156C10.5692 19.8418 11.1078 19.6687 11.6656 19.6686L11.6653 17.5298C10.6682 17.5299 9.69343 17.8386 8.88574 18.4162L10.1298 20.156ZM14.9976 22.3302C13.8229 22.3315 12.6631 22.088 11.5987 21.6179L10.7346 23.5745C12.0738 24.166 13.529 24.4707 15 24.4691L14.9976 22.3302ZM11.5987 21.6179C10.5344 21.1479 9.59258 20.4633 8.83636 19.614L7.23898 21.0364C8.20201 22.1179 9.39524 22.983 10.7346 23.5745L11.5987 21.6179ZM7.35787 19.4997L6.09343 20.5408L7.45303 22.192L8.71747 21.1508L7.35787 19.4997ZM5.97476 22.0779C7.09393 23.3339 8.48098 24.3405 10.0389 25.0285L10.9029 23.0719C9.62068 22.5057 8.48466 21.6796 7.5717 20.655L5.97476 22.0779ZM10.0389 25.0285C11.5963 25.7162 13.2887 26.0708 14.9998 26.0693L14.9978 23.9304C13.5828 23.9317 12.1856 23.6383 10.9029 23.0719L10.0389 25.0285ZM18.3321 19.6686C19.509 19.6686 20.4699 20.4184 20.7719 21.3912L22.8146 20.757C22.2277 18.8666 20.4219 17.5298 18.3321 17.5298V19.6686ZM22.0871 22.1024L23.6848 21.6458L23.0971 19.5892L21.4994 20.0458L22.0871 22.1024ZM24.4122 20.2998C24.0159 19.0261 23.2047 17.9175 22.1085 17.1333L20.8641 18.873C21.5907 19.3927 22.1155 20.1178 22.3698 20.9352L24.4122 20.2998ZM22.1085 17.1333C21.0128 16.3496 19.6884 15.9297 18.3322 15.9296L18.3321 18.0685C19.2489 18.0685 20.1369 18.3529 20.8641 18.873L22.1085 17.1333ZM21.1612 19.614C20.405 20.4633 19.4631 21.1479 18.3988 21.6179L19.263 23.5745C20.6023 22.983 21.7955 22.1179 22.7586 21.0364L21.1612 19.614ZM18.3988 21.6179C17.3345 22.088 16.1747 22.3315 15 22.3302L14.9976 24.4691C16.4686 24.4707 17.9237 24.166 19.263 23.5745L18.3988 21.6179ZM14.9978 26.0693C16.7089 26.0708 18.4013 25.7162 19.9587 25.0285L19.0947 23.0719C17.812 23.6383 16.4148 23.9317 14.9998 23.9304L14.9978 26.0693ZM19.9587 25.0285C21.5159 24.3408 22.9043 23.3355 24.0239 22.0789L22.427 20.656C21.5145 21.6801 20.3775 22.5054 19.0947 23.0719L19.9587 25.0285ZM23.9053 20.5419L22.6397 19.4997L21.28 21.1508L22.5456 22.193L23.9053 20.5419Z" fill="white" mask="url(#path-3-inside-1_54_7258)"/>
</svg>
