<svg width="13" height="13" viewBox="0 0 13 13" fill="none" xmlns="http://www.w3.org/2000/svg">
<path d="M12.1526 11.324L9.06467 8.23604C9.68237 7.44198 10.0508 6.4449 10.0508 5.36328C10.0508 2.77859 7.94797 0.675781 5.36328 0.675781C2.77859 0.675781 0.675781 2.77859 0.675781 5.36328C0.675781 7.94797 2.77859 10.0508 5.36328 10.0508C6.4449 10.0508 7.44198 9.68237 8.23604 9.06467L11.324 12.1526C11.4384 12.267 11.5883 12.3242 11.7383 12.3242C11.8882 12.3242 12.0382 12.267 12.1526 12.1526C12.3814 11.9238 12.3814 11.5528 12.1526 11.324ZM1.84766 5.36328C1.84766 3.42477 3.42477 1.84766 5.36328 1.84766C7.3018 1.84766 8.87891 3.42477 8.87891 5.36328C8.87891 7.3018 7.3018 8.87891 5.36328 8.87891C3.42477 8.87891 1.84766 7.3018 1.84766 5.36328Z" fill="white"/>
</svg>
