<svg width="30" height="30" viewBox="0 0 30 30" fill="none" xmlns="http://www.w3.org/2000/svg">
<rect width="30" height="30" rx="15" fill="#2398AB"/>
<path d="M16.4741 7.10988C16.0101 5.68185 13.9899 5.68184 13.5259 7.10988L12.2212 11.1253C12.2145 11.1459 12.1953 11.1598 12.1736 11.1598H7.95158C6.45006 11.1598 5.82576 13.0812 7.04051 13.9638L10.4562 16.4455C10.4737 16.4582 10.4811 16.4808 10.4744 16.5014L9.1697 20.5168C8.7057 21.9448 10.3401 23.1323 11.5549 22.2497L14.9706 19.7681C14.9881 19.7553 15.0119 19.7553 15.0294 19.7681L18.4451 22.2497C19.6599 23.1323 21.2943 21.9448 20.8303 20.5168L19.5256 16.5014C19.5189 16.4808 19.5263 16.4582 19.5438 16.4455L22.9595 13.9638C24.1742 13.0812 23.5499 11.1598 22.0484 11.1598H17.8264C17.8047 11.1598 17.7855 11.1459 17.7788 11.1253L16.4741 7.10988Z" stroke="white" stroke-width="1.5"/>
</svg>
