<svg width="66" height="66" viewBox="0 0 66 66" fill="none" xmlns="http://www.w3.org/2000/svg">
<g filter="url(#filter0_d_54_4321)">
<rect x="17" y="17" width="32" height="32" rx="16" fill="white"/>
<path d="M36.5425 31.8221C36.4058 29.3023 35.0291 27.8597 32.7176 27.8454C31.324 27.8369 30.159 28.4275 29.4453 29.5098L30.7174 30.3812C31.2523 29.5705 32.0967 29.4027 32.7083 29.4086C33.4701 29.4136 34.0438 29.6346 34.4158 30.0666C34.6857 30.3804 34.8671 30.8148 34.9574 31.3623C34.2825 31.2476 33.5519 31.2122 32.7725 31.2569C30.574 31.3834 29.1618 32.6657 29.2563 34.4465C29.3044 35.35 29.7541 36.1278 30.5234 36.6357C31.173 37.0651 32.0115 37.2743 32.8813 37.227C34.0311 37.1638 34.9329 36.7251 35.5622 35.9237C36.0397 35.3146 36.3417 34.525 36.475 33.5312C37.0234 33.8619 37.4283 34.2964 37.6535 34.8194C38.0348 35.7086 38.0568 37.1697 36.8648 38.3608C35.8204 39.4035 34.5651 39.8557 32.6678 39.8692C30.5631 39.854 28.9712 39.1783 27.9369 37.8631C26.9668 36.6315 26.4666 34.8515 26.448 32.5746C26.4666 30.2969 26.9676 28.5177 27.9369 27.2852C28.9712 25.9701 30.5631 25.2952 32.6678 25.28C34.7878 25.296 36.4067 25.9734 37.4814 27.2962C38.0087 27.9441 38.4052 28.759 38.6675 29.7089L40.1573 29.3124C39.8393 28.1423 39.3399 27.1342 38.6608 26.2982C37.2832 24.6026 35.2585 23.7345 32.6628 23.7168C30.0721 23.7345 28.0795 24.6068 26.7416 26.3075C25.5512 27.8218 24.9363 29.94 24.916 32.5805C24.9363 35.221 25.5512 37.3274 26.7416 38.8417C28.0804 40.5424 30.0822 41.4147 32.6721 41.4324C34.9759 41.4164 36.599 40.8132 37.9361 39.4778C39.6866 37.729 39.6334 35.5382 39.0573 34.1935C38.6144 33.16 37.7328 32.3325 36.5433 31.8229L36.5425 31.8221ZM32.7986 35.6664C31.8352 35.7204 30.8347 35.2884 30.7849 34.3622C30.7487 33.6755 31.2742 32.9095 32.8577 32.8184C33.5733 32.7703 34.2921 32.8197 34.9945 32.9652C34.8123 35.2446 33.7418 35.6141 32.7986 35.6664Z" fill="#2398AB"/>
</g>
<defs>
<filter id="filter0_d_54_4321" x="0.748724" y="0.748724" width="64.5026" height="64.5026" filterUnits="userSpaceOnUse" color-interpolation-filters="sRGB">
<feFlood flood-opacity="0" result="BackgroundImageFix"/>
<feColorMatrix in="SourceAlpha" type="matrix" values="0 0 0 0 0 0 0 0 0 0 0 0 0 0 0 0 0 0 127 0" result="hardAlpha"/>
<feMorphology radius="2.70855" operator="dilate" in="SourceAlpha" result="effect1_dropShadow_54_4321"/>
<feOffset/>
<feGaussianBlur stdDeviation="6.77137"/>
<feComposite in2="hardAlpha" operator="out"/>
<feColorMatrix type="matrix" values="0 0 0 0 0 0 0 0 0 0 0 0 0 0 0 0 0 0 0.04 0"/>
<feBlend mode="normal" in2="BackgroundImageFix" result="effect1_dropShadow_54_4321"/>
<feBlend mode="normal" in="SourceGraphic" in2="effect1_dropShadow_54_4321" result="shape"/>
</filter>
</defs>
</svg>
