<svg width="40" height="40" viewBox="0 0 40 40" fill="none" xmlns="http://www.w3.org/2000/svg">
<rect width="40" height="40" rx="20" fill="#2398AB"/>
<path d="M25.0965 19.0337C24.921 15.7977 23.153 13.9453 20.1847 13.9268C18.395 13.916 16.8989 14.6743 15.9824 16.0642L17.6161 17.1833C18.3029 16.1423 19.3873 15.9267 20.1728 15.9342C21.151 15.9408 21.8877 16.2246 22.3654 16.7793C22.7121 17.1823 22.945 17.7402 23.0609 18.4432C22.1943 18.2959 21.2561 18.2504 20.2551 18.3078C17.4319 18.4703 15.6184 20.117 15.7398 22.4039C15.8015 23.5642 16.3789 24.563 17.3669 25.2152C18.2011 25.7666 19.2779 26.0352 20.3948 25.9746C21.8714 25.8933 23.0295 25.33 23.8377 24.3008C24.4508 23.5187 24.8387 22.5047 25.0098 21.2285C25.714 21.6532 26.234 22.2111 26.5233 22.8828C27.0129 24.0246 27.0411 25.9009 25.5103 27.4306C24.1692 28.7696 22.5572 29.3503 20.1208 29.3676C17.4178 29.3481 15.3736 28.4803 14.0454 26.7914C12.7996 25.2097 12.1572 22.9239 12.1333 20C12.1572 17.075 12.8007 14.7903 14.0454 13.2075C15.3736 11.5186 17.4178 10.6519 20.1208 10.6324C22.8432 10.653 24.9221 11.5229 26.3023 13.2216C26.9793 14.0536 27.4885 15.1001 27.8254 16.3199L29.7386 15.8108C29.3302 14.3082 28.6888 13.0136 27.8168 11.94C26.0477 9.7625 23.4477 8.64775 20.1143 8.625C16.7873 8.64775 14.2285 9.76792 12.5103 11.9519C10.9818 13.8965 10.192 16.6168 10.166 20.0076C10.192 23.3984 10.9818 26.1035 12.5103 28.0481C14.2296 30.2321 16.8003 31.3523 20.1262 31.375C23.0848 31.3544 25.1691 30.5798 26.8862 28.8649C29.1341 26.6192 29.0658 23.8057 28.3259 22.0789C27.7572 20.7518 26.6251 19.6891 25.0976 19.0348L25.0965 19.0337ZM20.2887 23.9704C19.0515 24.0398 17.7667 23.4851 17.7028 22.2956C17.6562 21.4138 18.3311 20.4301 20.3645 20.3131C21.2835 20.2514 22.2067 20.3148 23.1086 20.5016C22.8746 23.4288 21.4998 23.9033 20.2887 23.9704Z" fill="white"/>
</svg>
