<svg width="66" height="66" viewBox="0 0 66 66" fill="none" xmlns="http://www.w3.org/2000/svg">
<g filter="url(#filter0_d_54_4310)">
<rect x="17" y="17" width="32" height="32" rx="16" fill="white"/>
<path fill-rule="evenodd" clip-rule="evenodd" d="M31.1743 29.4226C31.0758 29.3635 30.9635 29.3316 30.8486 29.3301C30.7338 29.3287 30.6206 29.3577 30.5207 29.4143C30.4207 29.4708 30.3376 29.5529 30.2797 29.6521C30.2219 29.7513 30.1914 29.8641 30.1914 29.979V35.1703C30.1914 35.2852 30.2219 35.398 30.2797 35.4972C30.3376 35.5964 30.4207 35.6785 30.5207 35.735C30.6206 35.7916 30.7338 35.8206 30.8486 35.8192C30.9635 35.8177 31.0758 35.7858 31.1743 35.7267L35.5005 33.131C35.5965 33.0733 35.676 32.9918 35.7312 32.8943C35.7863 32.7968 35.8153 32.6867 35.8153 32.5747C35.8153 32.4626 35.7863 32.3525 35.7312 32.255C35.676 32.1575 35.5965 32.076 35.5005 32.0183L31.1743 29.4226ZM33.905 32.5747L31.4893 34.0239V31.1254L33.905 32.5747Z" fill="#2398AB"/>
<path fill-rule="evenodd" clip-rule="evenodd" d="M36.9234 26.2071C34.0264 25.9805 31.1162 25.9805 28.2192 26.2071L26.2802 26.3593C25.7073 26.404 25.1658 26.6391 24.742 27.0272C24.3181 27.4153 24.0364 27.934 23.9415 28.5008C23.4909 31.1978 23.4909 33.9508 23.9415 36.6478C24.0364 37.2146 24.3181 37.7333 24.742 38.1214C25.1658 38.5095 25.7073 38.7446 26.2802 38.7892L28.2183 38.9415C31.116 39.1682 34.0266 39.1682 36.9243 38.9415L38.8624 38.7892C39.4353 38.7446 39.9768 38.5095 40.4007 38.1214C40.8245 37.7333 41.1063 37.2146 41.2011 36.6478C41.651 33.9509 41.651 31.1977 41.2011 28.5008C41.1063 27.934 40.8245 27.4153 40.4007 27.0272C39.9768 26.6391 39.4353 26.404 38.8624 26.3593L36.9234 26.2071ZM28.3204 27.5015C31.1506 27.28 33.9937 27.28 36.8239 27.5015L38.762 27.6529C39.3469 27.6987 39.8254 28.1374 39.9214 28.7154C40.3483 31.2703 40.3483 33.8783 39.9214 36.4332C39.8746 36.7144 39.735 36.9717 39.5248 37.1643C39.3147 37.3568 39.0462 37.4735 38.762 37.4957L36.8239 37.6471C33.9938 37.8686 31.1506 37.8686 28.3204 37.6471L26.3823 37.4957C26.0982 37.4735 25.8296 37.3568 25.6195 37.1643C25.4094 36.9717 25.2698 36.7144 25.2229 36.4332C24.7961 33.8783 24.7961 31.2703 25.2229 28.7154C25.2698 28.4342 25.4094 28.1769 25.6195 27.9843C25.8296 27.7918 26.0982 27.6751 26.3823 27.6529L28.3204 27.5015Z" fill="#2398AB"/>
</g>
<defs>
<filter id="filter0_d_54_4310" x="0.748724" y="0.748724" width="64.5026" height="64.5026" filterUnits="userSpaceOnUse" color-interpolation-filters="sRGB">
<feFlood flood-opacity="0" result="BackgroundImageFix"/>
<feColorMatrix in="SourceAlpha" type="matrix" values="0 0 0 0 0 0 0 0 0 0 0 0 0 0 0 0 0 0 127 0" result="hardAlpha"/>
<feMorphology radius="2.70855" operator="dilate" in="SourceAlpha" result="effect1_dropShadow_54_4310"/>
<feOffset/>
<feGaussianBlur stdDeviation="6.77137"/>
<feComposite in2="hardAlpha" operator="out"/>
<feColorMatrix type="matrix" values="0 0 0 0 0 0 0 0 0 0 0 0 0 0 0 0 0 0 0.04 0"/>
<feBlend mode="normal" in2="BackgroundImageFix" result="effect1_dropShadow_54_4310"/>
<feBlend mode="normal" in="SourceGraphic" in2="effect1_dropShadow_54_4310" result="shape"/>
</filter>
</defs>
</svg>
