<svg width="40" height="40" viewBox="0 0 40 40" fill="none" xmlns="http://www.w3.org/2000/svg">
<rect width="40" height="40" rx="20" fill="#2398AB"/>
<path fill-rule="evenodd" clip-rule="evenodd" d="M18.2056 15.9509C18.0791 15.875 17.9348 15.834 17.7873 15.8321C17.6399 15.8302 17.4945 15.8675 17.3662 15.9401C17.2379 16.0128 17.1311 16.1182 17.0568 16.2456C16.9825 16.373 16.9434 16.5178 16.9434 16.6653V23.332C16.9434 23.4795 16.9825 23.6243 17.0568 23.7517C17.1311 23.8791 17.2379 23.9845 17.3662 24.0572C17.4945 24.1298 17.6399 24.1671 17.7873 24.1652C17.9348 24.1633 18.0791 24.1223 18.2056 24.0464L23.7611 20.7131C23.8845 20.639 23.9865 20.5343 24.0574 20.4091C24.1283 20.2839 24.1655 20.1425 24.1655 19.9987C24.1655 19.8548 24.1283 19.7134 24.0574 19.5882C23.9865 19.463 23.8845 19.3583 23.7611 19.2842L18.2056 15.9509ZM21.7122 19.9987L18.61 21.8598V18.1375L21.7122 19.9987Z" fill="white"/>
<path fill-rule="evenodd" clip-rule="evenodd" d="M25.5876 11.8218C21.8673 11.5308 18.13 11.5308 14.4098 11.8218L11.9198 12.0173C11.1841 12.0747 10.4887 12.3766 9.94439 12.8749C9.40011 13.3733 9.03826 14.0395 8.91646 14.7673C8.33774 18.2307 8.33774 21.7662 8.91646 25.2296C9.03826 25.9574 9.40011 26.6236 9.94439 27.1219C10.4887 27.6203 11.1841 27.9222 11.9198 27.9796L14.4087 28.1751C18.1298 28.4662 21.8676 28.4662 25.5887 28.1751L28.0776 27.9796C28.8133 27.9222 29.5087 27.6203 30.053 27.1219C30.5973 26.6236 30.9591 25.9574 31.0809 25.2296C31.6587 21.7662 31.6587 18.2307 31.0809 14.7673C30.9591 14.0395 30.5973 13.3733 30.053 12.8749C29.5087 12.3766 28.8133 12.0747 28.0776 12.0173L25.5876 11.8218ZM14.5398 13.484C18.1742 13.1996 21.8254 13.1996 25.4598 13.484L27.9487 13.6784C28.6998 13.7373 29.3142 14.3007 29.4376 15.0429C29.9857 18.3239 29.9857 21.673 29.4376 24.954C29.3774 25.315 29.1981 25.6455 28.9283 25.8928C28.6584 26.1401 28.3136 26.2899 27.9487 26.3184L25.4598 26.5129C21.8254 26.7973 18.1742 26.7973 14.5398 26.5129L12.0509 26.3184C11.686 26.2899 11.3412 26.1401 11.0713 25.8928C10.8015 25.6455 10.6222 25.315 10.562 24.954C10.0139 21.673 10.0139 18.3239 10.562 15.0429C10.6222 14.6819 10.8015 14.3514 11.0713 14.1041C11.3412 13.8568 11.686 13.707 12.0509 13.6784L14.5398 13.484Z" fill="white"/>
</svg>
